<svg width="125" height="125" viewBox="0 0 125 125" fill="none" xmlns="http://www.w3.org/2000/svg">
<g clip-path="url(#clip0_455_12)">
<path fill-rule="evenodd" clip-rule="evenodd" d="M93.75 109.281L62.5 125L31.25 109.281L0 125V15.72L31.25 0L62.5 15.72L93.75 0L125 15.72V125L93.75 109.281Z" fill="white"/>
<path d="M18.75 75.0001V40.0001L31.235 33.7426L62.5 51.2501L93.75 36.2501L108.75 41.2501" stroke="#9BC4FD" stroke-width="4" stroke-miterlimit="10"/>
<path d="M18.75 76.25V66.25L31.25 60L62.5 76.25L93.75 62.5L108.75 56.25V40" stroke="#E64C3C" stroke-width="4" stroke-miterlimit="10"/>
<path d="M18.75 76.25L62.5 98.75L83.75 88.75V53.75L108.75 41.25" stroke="#F29C1F" stroke-width="4" stroke-miterlimit="10"/>
<path fill-rule="evenodd" clip-rule="evenodd" d="M108.75 45.625C106.338 45.625 104.375 43.6625 104.375 41.25C104.375 38.8375 106.338 36.875 108.75 36.875C111.163 36.875 113.125 38.8375 113.125 41.25C113.125 43.6625 111.163 45.625 108.75 45.625Z" fill="white"/>
<path d="M108.75 38.75C110.129 38.75 111.25 39.8712 111.25 41.25C111.25 42.6288 110.129 43.75 108.75 43.75C107.371 43.75 106.25 42.6288 106.25 41.25C106.25 39.8712 107.371 38.75 108.75 38.75ZM108.75 35C107.929 35.0001 107.116 35.1618 106.358 35.476C105.6 35.7902 104.911 36.2507 104.33 36.8312C103.158 38.0035 102.5 39.5935 102.5 41.2512C102.5 42.909 103.159 44.4988 104.331 45.6709C105.504 46.843 107.093 47.5014 108.751 47.5012C110.409 47.5011 111.999 46.8424 113.171 45.67C114.343 44.4977 115.001 42.9078 115.001 41.25C115.001 39.5922 114.342 38.0024 113.17 36.8303C111.998 35.6582 110.408 34.9998 108.75 35Z" fill="#03045E"/>
<path fill-rule="evenodd" clip-rule="evenodd" d="M18.75 80.625C16.3375 80.625 14.375 78.6625 14.375 76.25C14.375 73.8375 16.3375 71.875 18.75 71.875C21.1625 71.875 23.125 73.8375 23.125 76.25C23.125 78.6625 21.1625 80.625 18.75 80.625Z" fill="white"/>
<path d="M18.75 73.75C20.1288 73.75 21.25 74.8712 21.25 76.25C21.25 77.6288 20.1288 78.75 18.75 78.75C17.3712 78.75 16.25 77.6288 16.25 76.25C16.25 74.8712 17.3712 73.75 18.75 73.75ZM18.75 70C17.9292 70.0001 17.1164 70.1618 16.358 70.476C15.5997 70.7902 14.9107 71.2507 14.3303 71.8312C13.75 72.4117 13.2896 73.1008 12.9756 73.8592C12.6615 74.6176 12.4999 75.4304 12.5 76.2512C12.5001 77.0721 12.6618 77.8849 12.976 78.6432C13.2902 79.4015 13.7507 80.0906 14.3312 80.6709C14.9117 81.2513 15.6008 81.7116 16.3592 82.0257C17.1176 82.3397 17.9304 82.5013 18.7513 82.5012C20.409 82.5011 21.9988 81.8424 23.1709 80.67C24.343 79.4977 25.0014 77.9078 25.0012 76.25C25.0011 74.5922 24.3424 73.0024 23.17 71.8303C21.9977 70.6582 20.4078 69.9998 18.75 70Z" fill="#03045E"/>
<path opacity="0.15" fill-rule="evenodd" clip-rule="evenodd" d="M0 125L31.25 109.28V0L0 15.72V125ZM62.5 15.72V125L93.75 109.28V0L62.5 15.72Z" fill="#2C3E50"/>
</g>
<defs>
<clipPath id="clip0_455_12">
<rect width="125" height="125" fill="white"/>
</clipPath>
</defs>
</svg>
