<svg width="493" height="102" viewBox="0 0 493 102" fill="none" xmlns="http://www.w3.org/2000/svg">
<g filter="url(#filter0_d_412_153)">
<circle cx="51" cy="50" r="50" fill="#03045E"/>
</g>
<path fill-rule="evenodd" clip-rule="evenodd" d="M84.146 87.5C75.3319 79.7205 63.7538 75 51.0732 75C38.3927 75 26.8146 79.7205 18.0004 87.5C21.2634 90.3799 24.9051 92.8406 28.8412 94.7978C35.0621 90.2109 42.7511 87.5 51.0732 87.5C59.3954 87.5 67.0843 90.2109 73.3052 94.7978C77.2414 92.8406 80.8831 90.3799 84.146 87.5Z" fill="white"/>
<rect x="29" y="24" width="44" height="48" rx="3.5" fill="white"/>
<g filter="url(#filter1_d_412_153)">
<rect x="32" y="70" width="9" height="9" rx="3" fill="#9BC4FD"/>
</g>
<g filter="url(#filter2_d_412_153)">
<rect x="61" y="70" width="9" height="9" rx="3" fill="#9BC4FD"/>
</g>
<g filter="url(#filter3_d_412_153)">
<rect x="32" y="30" width="38" height="18" rx="2" fill="#03045E"/>
</g>
<path d="M36 22.25C36 21.0074 37.0074 20 38.25 20H63.75C64.9926 20 66 21.0074 66 22.25V25H36V22.25Z" fill="white"/>
<g filter="url(#filter4_d_412_153)">
<rect x="40" y="22" width="22" height="4" rx="1.5" fill="#03045E"/>
</g>
<g filter="url(#filter5_d_412_153)">
<circle cx="36.5" cy="55.5" r="3.5" fill="#03045E"/>
</g>
<g filter="url(#filter6_d_412_153)">
<circle cx="65.5" cy="55.5" r="3.5" fill="#03045E"/>
</g>
<path d="M145.206 39.242C144.998 39.606 144.773 39.8747 144.53 40.048C144.305 40.204 144.019 40.282 143.672 40.282C143.308 40.282 142.909 40.152 142.476 39.892C142.06 39.6147 141.557 39.3113 140.968 38.982C140.379 38.6527 139.685 38.358 138.888 38.098C138.108 37.8207 137.181 37.682 136.106 37.682C135.135 37.682 134.286 37.8033 133.558 38.046C132.83 38.2713 132.215 38.592 131.712 39.008C131.227 39.424 130.863 39.9267 130.62 40.516C130.377 41.088 130.256 41.7207 130.256 42.414C130.256 43.298 130.499 44.0347 130.984 44.624C131.487 45.2133 132.145 45.716 132.96 46.132C133.775 46.548 134.702 46.9207 135.742 47.25C136.782 47.5793 137.848 47.9347 138.94 48.316C140.032 48.68 141.098 49.1133 142.138 49.616C143.178 50.1013 144.105 50.7253 144.92 51.488C145.735 52.2333 146.385 53.152 146.87 54.244C147.373 55.336 147.624 56.662 147.624 58.222C147.624 59.9207 147.329 61.5153 146.74 63.006C146.168 64.4793 145.319 65.7707 144.192 66.88C143.083 67.972 141.722 68.8387 140.11 69.48C138.498 70.104 136.652 70.416 134.572 70.416C133.376 70.416 132.197 70.2947 131.036 70.052C129.875 69.8267 128.757 69.4973 127.682 69.064C126.625 68.6307 125.628 68.1107 124.692 67.504C123.756 66.8973 122.924 66.2213 122.196 65.476L124.25 62.122C124.423 61.8793 124.649 61.68 124.926 61.524C125.203 61.3507 125.498 61.264 125.81 61.264C126.243 61.264 126.711 61.446 127.214 61.81C127.717 62.1567 128.315 62.5467 129.008 62.98C129.701 63.4133 130.507 63.812 131.426 64.176C132.362 64.5227 133.48 64.696 134.78 64.696C136.773 64.696 138.316 64.228 139.408 63.292C140.5 62.3387 141.046 60.978 141.046 59.21C141.046 58.222 140.795 57.416 140.292 56.792C139.807 56.168 139.157 55.648 138.342 55.232C137.527 54.7987 136.6 54.4347 135.56 54.14C134.52 53.8453 133.463 53.5247 132.388 53.178C131.313 52.8313 130.256 52.4153 129.216 51.93C128.176 51.4447 127.249 50.812 126.434 50.032C125.619 49.252 124.961 48.2813 124.458 47.12C123.973 45.9413 123.73 44.494 123.73 42.778C123.73 41.4087 123.999 40.074 124.536 38.774C125.091 37.474 125.888 36.3213 126.928 35.316C127.968 34.3107 129.251 33.5047 130.776 32.898C132.301 32.2913 134.052 31.988 136.028 31.988C138.247 31.988 140.292 32.3347 142.164 33.028C144.036 33.7213 145.631 34.692 146.948 35.94L145.206 39.242ZM158.778 46.184C159.818 45.2133 160.962 44.4247 162.21 43.818C163.458 43.2113 164.922 42.908 166.604 42.908C168.06 42.908 169.351 43.1593 170.478 43.662C171.604 44.1473 172.54 44.8407 173.286 45.742C174.048 46.626 174.62 47.692 175.002 48.94C175.4 50.1707 175.6 51.5313 175.6 53.022V70H169.178V53.022C169.178 51.3927 168.805 50.136 168.06 49.252C167.314 48.3507 166.179 47.9 164.654 47.9C163.544 47.9 162.504 48.1513 161.534 48.654C160.563 49.1567 159.644 49.8413 158.778 50.708V70H152.356V31.364H158.778V46.184ZM188.363 43.324V70H181.915V43.324H188.363ZM189.247 35.55C189.247 36.1047 189.134 36.6247 188.909 37.11C188.684 37.5953 188.38 38.02 187.999 38.384C187.635 38.748 187.202 39.0427 186.699 39.268C186.196 39.476 185.659 39.58 185.087 39.58C184.532 39.58 184.004 39.476 183.501 39.268C183.016 39.0427 182.591 38.748 182.227 38.384C181.863 38.02 181.568 37.5953 181.343 37.11C181.135 36.6247 181.031 36.1047 181.031 35.55C181.031 34.978 181.135 34.4407 181.343 33.938C181.568 33.4353 181.863 33.002 182.227 32.638C182.591 32.274 183.016 31.988 183.501 31.78C184.004 31.5547 184.532 31.442 185.087 31.442C185.659 31.442 186.196 31.5547 186.699 31.78C187.202 31.988 187.635 32.274 187.999 32.638C188.38 33.002 188.684 33.4353 188.909 33.938C189.134 34.4407 189.247 34.978 189.247 35.55ZM220.468 48.134V62.59C220.468 63.422 220.676 64.072 221.092 64.54C221.508 65.008 222.063 65.242 222.756 65.242C223.155 65.242 223.484 65.1987 223.744 65.112C224.022 65.008 224.256 64.904 224.446 64.8C224.654 64.696 224.836 64.6007 224.992 64.514C225.148 64.41 225.304 64.358 225.46 64.358C225.651 64.358 225.807 64.41 225.928 64.514C226.05 64.6007 226.18 64.7393 226.318 64.93L228.242 68.05C227.306 68.83 226.232 69.4193 225.018 69.818C223.822 70.2167 222.574 70.416 221.274 70.416C218.952 70.416 217.166 69.766 215.918 68.466C214.67 67.1487 214.046 65.3373 214.046 63.032V48.134H203.204V70H196.782V48.16L194.468 47.796C193.966 47.692 193.558 47.5187 193.246 47.276C192.952 47.016 192.804 46.652 192.804 46.184V43.558H196.782V41.582C196.782 40.0567 197.008 38.6873 197.458 37.474C197.926 36.2607 198.585 35.2293 199.434 34.38C200.301 33.5307 201.35 32.8807 202.58 32.43C203.811 31.9793 205.198 31.754 206.74 31.754C207.971 31.754 209.115 31.9187 210.172 32.248L210.042 35.472C210.025 35.7147 209.956 35.914 209.834 36.07C209.713 36.2087 209.548 36.3213 209.34 36.408C209.15 36.4773 208.924 36.5293 208.664 36.564C208.404 36.5813 208.127 36.59 207.832 36.59C207.07 36.59 206.385 36.6767 205.778 36.85C205.189 37.006 204.686 37.292 204.27 37.708C203.854 38.1067 203.534 38.644 203.308 39.32C203.1 39.9787 202.996 40.802 202.996 41.79V43.558H214.332L215.71 36.252C215.797 35.9053 215.962 35.6367 216.204 35.446C216.447 35.2553 216.759 35.16 217.14 35.16H220.468V43.558H227.592V48.134H220.468ZM252.354 37.968V48.394H265.51V53.776H252.354V64.41H269.046V70H245.334V32.404H269.046V37.968H252.354ZM298.047 70H291.859C291.391 70 291.009 69.8787 290.715 69.636C290.437 69.3933 290.203 69.116 290.013 68.804L284.371 59.522C284.284 59.8167 284.18 60.094 284.059 60.354C283.955 60.614 283.833 60.8567 283.695 61.082L278.703 68.804C278.512 69.0987 278.278 69.376 278.001 69.636C277.723 69.8787 277.377 70 276.961 70H271.215L280.367 56.246L271.579 43.324H277.767C278.235 43.324 278.581 43.3933 278.807 43.532C279.032 43.6533 279.231 43.8613 279.405 44.156L284.995 53.048C285.185 52.4587 285.454 51.878 285.801 51.306L290.299 44.286C290.68 43.6447 291.174 43.324 291.781 43.324H297.683L288.921 55.96L298.047 70ZM307.821 63.084C308.549 63.968 309.337 64.592 310.187 64.956C311.053 65.32 311.989 65.502 312.995 65.502C313.965 65.502 314.841 65.32 315.621 64.956C316.401 64.592 317.059 64.0373 317.597 63.292C318.151 62.5467 318.576 61.6107 318.871 60.484C319.165 59.34 319.313 57.9967 319.313 56.454C319.313 54.894 319.183 53.5767 318.923 52.502C318.68 51.41 318.325 50.526 317.857 49.85C317.389 49.174 316.817 48.68 316.141 48.368C315.482 48.056 314.728 47.9 313.879 47.9C312.544 47.9 311.409 48.186 310.473 48.758C309.537 49.3127 308.653 50.1013 307.821 51.124V63.084ZM307.483 46.964C308.575 45.7333 309.814 44.7367 311.201 43.974C312.587 43.2113 314.217 42.83 316.089 42.83C317.545 42.83 318.871 43.1333 320.067 43.74C321.28 44.3467 322.32 45.2307 323.187 46.392C324.071 47.536 324.747 48.9573 325.215 50.656C325.7 52.3373 325.943 54.27 325.943 56.454C325.943 58.4473 325.674 60.2933 325.137 61.992C324.599 63.6907 323.828 65.164 322.823 66.412C321.835 67.66 320.63 68.6393 319.209 69.35C317.805 70.0433 316.227 70.39 314.477 70.39C312.986 70.39 311.712 70.1647 310.655 69.714C309.597 69.246 308.653 68.6047 307.821 67.79V78.71H301.399V43.324H305.325C306.157 43.324 306.703 43.714 306.963 44.494L307.483 46.964ZM337.011 47.952C337.843 46.3573 338.831 45.1093 339.975 44.208C341.119 43.2893 342.471 42.83 344.031 42.83C345.262 42.83 346.25 43.0987 346.995 43.636L346.579 48.446C346.493 48.758 346.363 48.9833 346.189 49.122C346.033 49.2433 345.817 49.304 345.539 49.304C345.279 49.304 344.889 49.2607 344.369 49.174C343.867 49.0873 343.373 49.044 342.887 49.044C342.177 49.044 341.544 49.148 340.989 49.356C340.435 49.564 339.932 49.8673 339.481 50.266C339.048 50.6473 338.658 51.1153 338.311 51.67C337.982 52.2247 337.67 52.8573 337.375 53.568V70H330.953V43.324H334.723C335.382 43.324 335.841 43.4453 336.101 43.688C336.361 43.9133 336.535 44.3293 336.621 44.936L337.011 47.952ZM366.776 53.594C366.776 52.762 366.655 51.982 366.412 51.254C366.187 50.5087 365.84 49.8587 365.372 49.304C364.904 48.7493 364.306 48.316 363.578 48.004C362.867 47.6747 362.035 47.51 361.082 47.51C359.227 47.51 357.763 48.0387 356.688 49.096C355.631 50.1533 354.955 51.6527 354.66 53.594H366.776ZM354.53 57.468C354.634 58.8373 354.877 60.0247 355.258 61.03C355.639 62.018 356.142 62.8413 356.766 63.5C357.39 64.1413 358.127 64.6267 358.976 64.956C359.843 65.268 360.796 65.424 361.836 65.424C362.876 65.424 363.769 65.3027 364.514 65.06C365.277 64.8173 365.935 64.5487 366.49 64.254C367.062 63.9593 367.556 63.6907 367.972 63.448C368.405 63.2053 368.821 63.084 369.22 63.084C369.757 63.084 370.156 63.2833 370.416 63.682L372.262 66.022C371.551 66.854 370.754 67.556 369.87 68.128C368.986 68.6827 368.059 69.1333 367.088 69.48C366.135 69.8093 365.155 70.0433 364.15 70.182C363.162 70.3207 362.2 70.39 361.264 70.39C359.409 70.39 357.685 70.0867 356.09 69.48C354.495 68.856 353.109 67.946 351.93 66.75C350.751 65.5367 349.824 64.046 349.148 62.278C348.472 60.4927 348.134 58.43 348.134 56.09C348.134 54.27 348.429 52.5627 349.018 50.968C349.607 49.356 350.448 47.9607 351.54 46.782C352.649 45.586 353.993 44.6413 355.57 43.948C357.165 43.2547 358.959 42.908 360.952 42.908C362.633 42.908 364.185 43.1767 365.606 43.714C367.027 44.2513 368.249 45.04 369.272 46.08C370.295 47.1027 371.092 48.368 371.664 49.876C372.253 51.3667 372.548 53.074 372.548 54.998C372.548 55.9687 372.444 56.6273 372.236 56.974C372.028 57.3033 371.629 57.468 371.04 57.468H354.53ZM393.643 48.524C393.47 48.8013 393.288 49.0007 393.097 49.122C392.907 49.226 392.664 49.278 392.369 49.278C392.057 49.278 391.719 49.1913 391.355 49.018C391.009 48.8447 390.601 48.654 390.133 48.446C389.665 48.2207 389.128 48.0213 388.521 47.848C387.932 47.6747 387.23 47.588 386.415 47.588C385.15 47.588 384.153 47.8567 383.425 48.394C382.715 48.9313 382.359 49.6333 382.359 50.5C382.359 51.072 382.541 51.5573 382.905 51.956C383.287 52.3373 383.781 52.6753 384.387 52.97C385.011 53.2647 385.713 53.5333 386.493 53.776C387.273 54.0013 388.062 54.2527 388.859 54.53C389.674 54.8073 390.471 55.128 391.251 55.492C392.031 55.8387 392.725 56.2893 393.331 56.844C393.955 57.3813 394.449 58.0313 394.813 58.794C395.195 59.5567 395.385 60.4753 395.385 61.55C395.385 62.8327 395.151 64.02 394.683 65.112C394.233 66.1867 393.557 67.1227 392.655 67.92C391.754 68.7 390.636 69.3153 389.301 69.766C387.984 70.1993 386.459 70.416 384.725 70.416C383.807 70.416 382.905 70.3293 382.021 70.156C381.155 70 380.314 69.7747 379.499 69.48C378.702 69.1853 377.957 68.8387 377.263 68.44C376.587 68.0413 375.989 67.608 375.469 67.14L376.951 64.696C377.142 64.4013 377.367 64.176 377.627 64.02C377.887 63.864 378.217 63.786 378.615 63.786C379.014 63.786 379.387 63.8987 379.733 64.124C380.097 64.3493 380.513 64.592 380.981 64.852C381.449 65.112 381.995 65.3547 382.619 65.58C383.261 65.8053 384.067 65.918 385.037 65.918C385.8 65.918 386.45 65.8313 386.987 65.658C387.542 65.4673 387.993 65.2247 388.339 64.93C388.703 64.6353 388.963 64.2973 389.119 63.916C389.293 63.5173 389.379 63.11 389.379 62.694C389.379 62.07 389.189 61.5587 388.807 61.16C388.443 60.7613 387.949 60.4147 387.325 60.12C386.719 59.8253 386.017 59.5653 385.219 59.34C384.439 59.0973 383.633 58.8373 382.801 58.56C381.987 58.2827 381.181 57.962 380.383 57.598C379.603 57.2167 378.901 56.74 378.277 56.168C377.671 55.596 377.177 54.894 376.795 54.062C376.431 53.23 376.249 52.2247 376.249 51.046C376.249 49.954 376.466 48.914 376.899 47.926C377.333 46.938 377.965 46.08 378.797 45.352C379.647 44.6067 380.695 44.0173 381.943 43.584C383.209 43.1333 384.665 42.908 386.311 42.908C388.149 42.908 389.821 43.2113 391.329 43.818C392.837 44.4247 394.094 45.222 395.099 46.21L393.643 48.524ZM416.495 48.524C416.322 48.8013 416.14 49.0007 415.949 49.122C415.758 49.226 415.516 49.278 415.221 49.278C414.909 49.278 414.571 49.1913 414.207 49.018C413.86 48.8447 413.453 48.654 412.985 48.446C412.517 48.2207 411.98 48.0213 411.373 47.848C410.784 47.6747 410.082 47.588 409.267 47.588C408.002 47.588 407.005 47.8567 406.277 48.394C405.566 48.9313 405.211 49.6333 405.211 50.5C405.211 51.072 405.393 51.5573 405.757 51.956C406.138 52.3373 406.632 52.6753 407.239 52.97C407.863 53.2647 408.565 53.5333 409.345 53.776C410.125 54.0013 410.914 54.2527 411.711 54.53C412.526 54.8073 413.323 55.128 414.103 55.492C414.883 55.8387 415.576 56.2893 416.183 56.844C416.807 57.3813 417.301 58.0313 417.665 58.794C418.046 59.5567 418.237 60.4753 418.237 61.55C418.237 62.8327 418.003 64.02 417.535 65.112C417.084 66.1867 416.408 67.1227 415.507 67.92C414.606 68.7 413.488 69.3153 412.153 69.766C410.836 70.1993 409.31 70.416 407.577 70.416C406.658 70.416 405.757 70.3293 404.873 70.156C404.006 70 403.166 69.7747 402.351 69.48C401.554 69.1853 400.808 68.8387 400.115 68.44C399.439 68.0413 398.841 67.608 398.321 67.14L399.803 64.696C399.994 64.4013 400.219 64.176 400.479 64.02C400.739 63.864 401.068 63.786 401.467 63.786C401.866 63.786 402.238 63.8987 402.585 64.124C402.949 64.3493 403.365 64.592 403.833 64.852C404.301 65.112 404.847 65.3547 405.471 65.58C406.112 65.8053 406.918 65.918 407.889 65.918C408.652 65.918 409.302 65.8313 409.839 65.658C410.394 65.4673 410.844 65.2247 411.191 64.93C411.555 64.6353 411.815 64.2973 411.971 63.916C412.144 63.5173 412.231 63.11 412.231 62.694C412.231 62.07 412.04 61.5587 411.659 61.16C411.295 60.7613 410.801 60.4147 410.177 60.12C409.57 59.8253 408.868 59.5653 408.071 59.34C407.291 59.0973 406.485 58.8373 405.653 58.56C404.838 58.2827 404.032 57.962 403.235 57.598C402.455 57.2167 401.753 56.74 401.129 56.168C400.522 55.596 400.028 54.894 399.647 54.062C399.283 53.23 399.101 52.2247 399.101 51.046C399.101 49.954 399.318 48.914 399.751 47.926C400.184 46.938 400.817 46.08 401.649 45.352C402.498 44.6067 403.547 44.0173 404.795 43.584C406.06 43.1333 407.516 42.908 409.163 42.908C411 42.908 412.673 43.2113 414.181 43.818C415.689 44.4247 416.946 45.222 417.951 46.21L416.495 48.524Z" fill="#03045E"/>
<path d="M435.351 42.882C435.611 41.0793 436.114 39.502 436.859 38.15C437.604 36.7807 438.532 35.6453 439.641 34.744C440.768 33.8253 442.05 33.1407 443.489 32.69C444.945 32.222 446.505 31.988 448.169 31.988C449.902 31.988 451.462 32.2393 452.849 32.742C454.253 33.2273 455.449 33.912 456.437 34.796C457.425 35.6627 458.179 36.6853 458.699 37.864C459.236 39.0427 459.505 40.3167 459.505 41.686C459.505 42.882 459.366 43.9393 459.089 44.858C458.829 45.7593 458.448 46.548 457.945 47.224C457.442 47.9 456.818 48.472 456.073 48.94C455.328 49.408 454.487 49.798 453.551 50.11C455.804 50.8207 457.486 51.904 458.595 53.36C459.704 54.816 460.259 56.6447 460.259 58.846C460.259 60.718 459.912 62.3733 459.219 63.812C458.526 65.2507 457.59 66.464 456.411 67.452C455.232 68.4227 453.863 69.1593 452.303 69.662C450.76 70.1647 449.122 70.416 447.389 70.416C445.5 70.416 443.853 70.1993 442.449 69.766C441.045 69.3327 439.823 68.6913 438.783 67.842C437.743 66.9927 436.859 65.9527 436.131 64.722C435.403 63.4913 434.779 62.07 434.259 60.458L437.093 59.288C437.838 58.976 438.532 58.898 439.173 59.054C439.832 59.1927 440.308 59.5393 440.603 60.094C440.915 60.7007 441.253 61.2987 441.617 61.888C441.998 62.4773 442.449 63.006 442.969 63.474C443.489 63.9247 444.096 64.2973 444.789 64.592C445.5 64.8693 446.34 65.008 447.311 65.008C448.403 65.008 449.356 64.8347 450.171 64.488C450.986 64.124 451.662 63.656 452.199 63.084C452.754 62.512 453.161 61.8793 453.421 61.186C453.698 60.4753 453.837 59.7647 453.837 59.054C453.837 58.1527 453.742 57.338 453.551 56.61C453.36 55.8647 452.962 55.232 452.355 54.712C451.748 54.192 450.873 53.7847 449.729 53.49C448.602 53.1953 447.086 53.048 445.179 53.048V48.472C446.756 48.4547 448.065 48.3073 449.105 48.03C450.145 47.7527 450.968 47.3713 451.575 46.886C452.199 46.3833 452.632 45.7853 452.875 45.092C453.118 44.3987 453.239 43.636 453.239 42.804C453.239 41.036 452.745 39.6927 451.757 38.774C450.769 37.8553 449.452 37.396 447.805 37.396C447.042 37.396 446.34 37.5087 445.699 37.734C445.058 37.942 444.477 38.2453 443.957 38.644C443.454 39.0253 443.03 39.476 442.683 39.996C442.336 40.516 442.076 41.088 441.903 41.712C441.608 42.5093 441.218 43.038 440.733 43.298C440.265 43.558 439.598 43.6187 438.731 43.48L435.351 42.882ZM489.617 65.19V70H468.817V65.19H476.435V43.272C476.435 42.4053 476.461 41.5127 476.513 40.594L471.105 45.118C470.793 45.3607 470.481 45.5167 470.169 45.586C469.874 45.638 469.588 45.638 469.311 45.586C469.051 45.534 468.817 45.4473 468.609 45.326C468.401 45.1873 468.245 45.04 468.141 44.884L466.113 42.102L477.579 32.352H482.857V65.19H489.617Z" fill="#9BC4FD"/>
<defs>
<filter id="filter0_d_412_153" x="0" y="0" width="102" height="102" filterUnits="userSpaceOnUse" color-interpolation-filters="sRGB">
<feFlood flood-opacity="0" result="BackgroundImageFix"/>
<feColorMatrix in="SourceAlpha" type="matrix" values="0 0 0 0 0 0 0 0 0 0 0 0 0 0 0 0 0 0 127 0" result="hardAlpha"/>
<feOffset dy="1"/>
<feGaussianBlur stdDeviation="0.5"/>
<feComposite in2="hardAlpha" operator="out"/>
<feColorMatrix type="matrix" values="0 0 0 0 0 0 0 0 0 0 0 0 0 0 0 0 0 0 0.25 0"/>
<feBlend mode="normal" in2="BackgroundImageFix" result="effect1_dropShadow_412_153"/>
<feBlend mode="normal" in="SourceGraphic" in2="effect1_dropShadow_412_153" result="shape"/>
</filter>
<filter id="filter1_d_412_153" x="32" y="70" width="11" height="11" filterUnits="userSpaceOnUse" color-interpolation-filters="sRGB">
<feFlood flood-opacity="0" result="BackgroundImageFix"/>
<feColorMatrix in="SourceAlpha" type="matrix" values="0 0 0 0 0 0 0 0 0 0 0 0 0 0 0 0 0 0 127 0" result="hardAlpha"/>
<feOffset dx="1" dy="1"/>
<feGaussianBlur stdDeviation="0.5"/>
<feComposite in2="hardAlpha" operator="out"/>
<feColorMatrix type="matrix" values="0 0 0 0 0.607843 0 0 0 0 0.768627 0 0 0 0 0.992157 0 0 0 0.25 0"/>
<feBlend mode="normal" in2="BackgroundImageFix" result="effect1_dropShadow_412_153"/>
<feBlend mode="normal" in="SourceGraphic" in2="effect1_dropShadow_412_153" result="shape"/>
</filter>
<filter id="filter2_d_412_153" x="61" y="70" width="11" height="11" filterUnits="userSpaceOnUse" color-interpolation-filters="sRGB">
<feFlood flood-opacity="0" result="BackgroundImageFix"/>
<feColorMatrix in="SourceAlpha" type="matrix" values="0 0 0 0 0 0 0 0 0 0 0 0 0 0 0 0 0 0 127 0" result="hardAlpha"/>
<feOffset dx="1" dy="1"/>
<feGaussianBlur stdDeviation="0.5"/>
<feComposite in2="hardAlpha" operator="out"/>
<feColorMatrix type="matrix" values="0 0 0 0 0.607843 0 0 0 0 0.768627 0 0 0 0 0.992157 0 0 0 0.25 0"/>
<feBlend mode="normal" in2="BackgroundImageFix" result="effect1_dropShadow_412_153"/>
<feBlend mode="normal" in="SourceGraphic" in2="effect1_dropShadow_412_153" result="shape"/>
</filter>
<filter id="filter3_d_412_153" x="32" y="30" width="40" height="20" filterUnits="userSpaceOnUse" color-interpolation-filters="sRGB">
<feFlood flood-opacity="0" result="BackgroundImageFix"/>
<feColorMatrix in="SourceAlpha" type="matrix" values="0 0 0 0 0 0 0 0 0 0 0 0 0 0 0 0 0 0 127 0" result="hardAlpha"/>
<feOffset dx="1" dy="1"/>
<feGaussianBlur stdDeviation="0.5"/>
<feComposite in2="hardAlpha" operator="out"/>
<feColorMatrix type="matrix" values="0 0 0 0 0.0117647 0 0 0 0 0.0156863 0 0 0 0 0.368627 0 0 0 0.25 0"/>
<feBlend mode="normal" in2="BackgroundImageFix" result="effect1_dropShadow_412_153"/>
<feBlend mode="normal" in="SourceGraphic" in2="effect1_dropShadow_412_153" result="shape"/>
</filter>
<filter id="filter4_d_412_153" x="40" y="22" width="24" height="6" filterUnits="userSpaceOnUse" color-interpolation-filters="sRGB">
<feFlood flood-opacity="0" result="BackgroundImageFix"/>
<feColorMatrix in="SourceAlpha" type="matrix" values="0 0 0 0 0 0 0 0 0 0 0 0 0 0 0 0 0 0 127 0" result="hardAlpha"/>
<feOffset dx="1" dy="1"/>
<feGaussianBlur stdDeviation="0.5"/>
<feComposite in2="hardAlpha" operator="out"/>
<feColorMatrix type="matrix" values="0 0 0 0 0.607843 0 0 0 0 0.768627 0 0 0 0 0.992157 0 0 0 0.25 0"/>
<feBlend mode="normal" in2="BackgroundImageFix" result="effect1_dropShadow_412_153"/>
<feBlend mode="normal" in="SourceGraphic" in2="effect1_dropShadow_412_153" result="shape"/>
</filter>
<filter id="filter5_d_412_153" x="33" y="52" width="9" height="9" filterUnits="userSpaceOnUse" color-interpolation-filters="sRGB">
<feFlood flood-opacity="0" result="BackgroundImageFix"/>
<feColorMatrix in="SourceAlpha" type="matrix" values="0 0 0 0 0 0 0 0 0 0 0 0 0 0 0 0 0 0 127 0" result="hardAlpha"/>
<feOffset dx="1" dy="1"/>
<feGaussianBlur stdDeviation="0.5"/>
<feComposite in2="hardAlpha" operator="out"/>
<feColorMatrix type="matrix" values="0 0 0 0 0.0117647 0 0 0 0 0.0156863 0 0 0 0 0.368627 0 0 0 0.25 0"/>
<feBlend mode="normal" in2="BackgroundImageFix" result="effect1_dropShadow_412_153"/>
<feBlend mode="normal" in="SourceGraphic" in2="effect1_dropShadow_412_153" result="shape"/>
</filter>
<filter id="filter6_d_412_153" x="62" y="52" width="9" height="9" filterUnits="userSpaceOnUse" color-interpolation-filters="sRGB">
<feFlood flood-opacity="0" result="BackgroundImageFix"/>
<feColorMatrix in="SourceAlpha" type="matrix" values="0 0 0 0 0 0 0 0 0 0 0 0 0 0 0 0 0 0 127 0" result="hardAlpha"/>
<feOffset dx="1" dy="1"/>
<feGaussianBlur stdDeviation="0.5"/>
<feComposite in2="hardAlpha" operator="out"/>
<feColorMatrix type="matrix" values="0 0 0 0 0.0117647 0 0 0 0 0.0156863 0 0 0 0 0.368627 0 0 0 0.25 0"/>
<feBlend mode="normal" in2="BackgroundImageFix" result="effect1_dropShadow_412_153"/>
<feBlend mode="normal" in="SourceGraphic" in2="effect1_dropShadow_412_153" result="shape"/>
</filter>
</defs>
</svg>
