<svg width="125" height="125" viewBox="0 0 125 125" fill="none" xmlns="http://www.w3.org/2000/svg">
<path d="M113 117.533C113 119.514 112.362 121.413 111.225 122.813C110.089 124.213 108.547 125 106.94 125H18.06C16.4528 125 14.9114 124.213 13.7749 122.813C12.6385 121.413 12 119.514 12 117.533V20.4667C12 18.4864 12.6385 16.5872 13.7749 15.1869C14.9114 13.7867 16.4528 13 18.06 13H106.94C108.547 13 110.089 13.7867 111.225 15.1869C112.362 16.5872 113 18.4864 113 20.4667V117.533Z" fill="#03045E"/>
<path fill-rule="evenodd" clip-rule="evenodd" d="M102.5 108.75C102.5 109.413 102.237 110.049 101.768 110.518C101.299 110.987 100.663 111.25 100 111.25H25C24.337 111.25 23.7011 110.987 23.2322 110.518C22.7634 110.049 22.5 109.413 22.5 108.75V22.5C22.5 21.837 22.7634 21.2011 23.2322 20.7322C23.7011 20.2634 24.337 20 25 20H100C100.663 20 101.299 20.2634 101.768 20.7322C102.237 21.2011 102.5 21.837 102.5 22.5V108.75Z" fill="white"/>
<path fill-rule="evenodd" clip-rule="evenodd" d="M90 25H35C34.0054 25 33.0516 24.6049 32.3483 23.9017C31.6451 23.1984 31.25 22.2446 31.25 21.25V12.5C31.25 11.5054 31.6451 10.5516 32.3483 9.84835C33.0516 9.14509 34.0054 8.75 35 8.75H53.75C53.75 6.42936 54.6719 4.20376 56.3128 2.56282C57.9538 0.921872 60.1794 0 62.5 0C64.8206 0 67.0462 0.921872 68.6872 2.56282C70.3281 4.20376 71.25 6.42936 71.25 8.75H90C90.9946 8.75 91.9484 9.14509 92.6517 9.84835C93.3549 10.5516 93.75 11.5054 93.75 12.5V21.25C93.75 22.2446 93.3549 23.1984 92.6517 23.9017C91.9484 24.6049 90.9946 25 90 25ZM62.5 5C62.0075 5 61.5199 5.097 61.0649 5.28545C60.61 5.47391 60.1966 5.75013 59.8484 6.09835C59.5001 6.44657 59.2239 6.85997 59.0355 7.31494C58.847 7.76991 58.75 8.25754 58.75 8.75C58.75 9.24246 58.847 9.73009 59.0355 10.1851C59.2239 10.64 59.5001 11.0534 59.8484 11.4017C60.1966 11.7499 60.61 12.0261 61.0649 12.2145C61.5199 12.403 62.0075 12.5 62.5 12.5C63.4946 12.5 64.4484 12.1049 65.1516 11.4017C65.8549 10.6984 66.25 9.74456 66.25 8.75C66.25 7.75544 65.8549 6.80161 65.1516 6.09835C64.4484 5.39509 63.4946 5 62.5 5Z" fill="#BDC3C7"/>
<path fill-rule="evenodd" clip-rule="evenodd" d="M90 25H35C34.0054 25 33.0516 24.6049 32.3483 23.9017C31.6451 23.1984 31.25 22.2446 31.25 21.25V18.75C31.25 19.7446 31.6451 20.6984 32.3483 21.4017C33.0516 22.1049 34.0054 22.5 35 22.5H90C90.9946 22.5 91.9484 22.1049 92.6517 21.4017C93.3549 20.6984 93.75 19.7446 93.75 18.75V21.25C93.75 22.2446 93.3549 23.1984 92.6517 23.9017C91.9484 24.6049 90.9946 25 90 25Z" fill="#A1A6A9"/>
<path opacity="0.15" fill-rule="evenodd" clip-rule="evenodd" d="M106.94 121.333H18.06C16.4528 121.333 14.9114 120.561 13.7749 119.185C12.6385 117.81 12 115.945 12 114V117.667C12 119.612 12.6385 121.477 13.7749 122.852C14.9114 124.227 16.4528 125 18.06 125H106.94C108.547 125 110.089 124.227 111.225 122.852C112.362 121.477 113 119.612 113 117.667V114C113 115.945 112.362 117.81 111.225 119.185C110.089 120.561 108.547 121.333 106.94 121.333Z" fill="black"/>
<path fill-rule="evenodd" clip-rule="evenodd" d="M51.25 51.2488V54.9988H90V51.2488H51.25ZM51.25 68.75H90V64.9988H51.25V68.75ZM51.25 82.4975H90V78.7488H51.25V82.4975ZM51.25 96.2488H90V92.4988H51.25V96.2488ZM35 57.4988H43.75V48.7488H35V57.4988ZM35 71.2488H43.75V62.4988H35V71.2488ZM35 84.9988H43.75V76.2488H35V84.9988ZM35 98.75H43.75V89.9988H35V98.75Z" fill="#9BC4FD"/>
<path fill-rule="evenodd" clip-rule="evenodd" d="M51.25 36.2499V40.0012H90V36.2499H51.25ZM44.9087 34.7324L44.0238 33.8412C43.9947 33.8121 43.9602 33.789 43.9223 33.7733C43.8843 33.7575 43.8436 33.7494 43.8025 33.7494C43.7614 33.7494 43.7207 33.7575 43.6827 33.7733C43.6448 33.789 43.6103 33.8121 43.5813 33.8412L38.9212 38.4699C38.8924 38.4994 38.858 38.5227 38.82 38.5387C38.782 38.5546 38.7412 38.5628 38.7 38.5628C38.6588 38.5628 38.618 38.5546 38.58 38.5387C38.542 38.5227 38.5076 38.4994 38.4788 38.4699L36.4375 36.3949C36.4085 36.3658 36.374 36.3428 36.336 36.327C36.2981 36.3112 36.2574 36.3031 36.2162 36.3031C36.1751 36.3031 36.1344 36.3112 36.0965 36.327C36.0585 36.3428 36.024 36.3658 35.995 36.3949L35.0925 37.2049C35.0635 37.2335 35.0403 37.2676 35.0245 37.3051C35.0086 37.3426 35.0003 37.3829 35 37.4237L35.0137 37.4912H35V38.7387H35.0137L35.0925 38.8974L37.1513 41.0537L37.5938 41.4974L38.4788 42.3887C38.5078 42.4178 38.5423 42.4409 38.5802 42.4566C38.6182 42.4724 38.6589 42.4805 38.7 42.4805C38.7411 42.4805 38.7818 42.4724 38.8198 42.4566C38.8577 42.4409 38.8922 42.4178 38.9212 42.3887L44.9087 36.4249L44.9925 36.2449H45V34.9974H44.9925C44.9999 34.9498 44.9962 34.9011 44.9817 34.8551C44.9672 34.8092 44.9422 34.7672 44.9087 34.7324Z" fill="#03045E"/>
<path fill-rule="evenodd" clip-rule="evenodd" d="M62.5 4.99999C63.2733 5.00137 64.0271 5.24256 64.6575 5.69031C65.288 6.13807 65.764 6.77034 66.02 7.49999C66.16 7.10874 66.25 6.69248 66.25 6.25124C66.25 5.25651 65.8549 4.30252 65.1515 3.59914C64.4481 2.89576 63.4941 2.50061 62.4994 2.50061C61.5047 2.50061 60.5507 2.89576 59.8473 3.59914C59.1439 4.30252 58.7488 5.25651 58.7488 6.25124C58.7488 6.69248 58.8388 7.10873 58.9788 7.50124C59.2348 6.77126 59.711 6.13867 60.3417 5.69069C60.9723 5.24271 61.7264 5.00138 62.5 4.99999Z" fill="#A1A6A9"/>
</svg>
