<svg width="125" height="125" viewBox="0 0 125 125" fill="none" xmlns="http://www.w3.org/2000/svg">
<path d="M123.725 57.0606C122.697 55.062 121.096 53.4153 119.128 52.3308L119.148 52.3182L58.9482 20.8334L0.00505066 51.1339L0.193182 51.2399L59.9798 82.5985C65.529 85.5089 67.6869 92.4041 64.803 97.9988C63.8926 99.7605 62.5355 101.252 60.8674 102.325L60.7891 102.427L60.7374 102.465L121.067 70.9255C124.956 67.5594 126.193 61.8384 123.725 57.0606Z" fill="#EBECED"/>
<path d="M59.9798 82.5984L0 51.1376V76.8825L49.5391 102.867C51.1461 103.713 52.9343 104.155 54.75 104.157C56.8297 104.154 58.8686 103.579 60.6422 102.493C62.4159 101.407 63.8556 99.8526 64.803 98.0012C67.6856 92.404 65.5278 85.5088 59.9798 82.5984Z" fill="#BDC3C7"/>
<path d="M23.1945 48.9975L28.9697 51.9079L19.2626 50.9786L16.2487 52.4963L26.6907 57.7538L29.7235 56.2261L23.9924 53.3384L33.6351 54.2589L36.6755 52.7273L26.2336 47.4697L23.1945 48.9975ZM39.6818 48.8296L37.6225 47.7942L42.6439 45.2665L40.5126 44.192L35.4912 46.7197L33.8346 45.8851L39.245 43.1604L37.0152 42.0367L28.3687 46.3902L38.8106 51.6478L47.6149 47.2134L45.25 46.024L39.6818 48.8296ZM49.3965 35.8006L54.1288 39.2993L46.6717 37.1743L43.6187 38.7122L47.851 42.4697L40.9028 40.0809L37.8384 41.6238L50.5998 45.7122L53.7639 44.1187L49.0139 39.8889L57.4179 42.2778L60.5821 40.6831L52.4445 34.2665L49.3965 35.8006ZM70.7475 34.0089C70.553 33.5379 70.1212 33.1351 69.4508 32.798C68.8826 32.5089 68.2273 32.322 67.4899 32.2298C66.75 32.1377 65.9217 32.1667 64.9975 32.317C64.0758 32.4672 62.7601 32.8195 61.0455 33.3776C60.3573 33.6061 59.8662 33.7223 59.5783 33.7298C59.2892 33.7425 59.0619 33.7046 58.8952 33.6213C58.6654 33.5064 58.5682 33.3624 58.5998 33.1857C58.6313 33.0089 58.8359 32.8271 59.2083 32.6364C59.641 32.4133 60.1161 32.2846 60.6023 32.2589C61.0732 32.2349 61.5846 32.3233 62.1364 32.5177L65.0013 30.8978C63.7854 30.4192 62.5808 30.2324 61.3876 30.3359C60.1894 30.4382 58.9243 30.8258 57.5897 31.4975C56.5013 32.0455 55.7803 32.5442 55.4306 32.9975C55.0808 33.4483 54.9861 33.8738 55.1528 34.2702C55.3195 34.6667 55.6692 35.0026 56.2071 35.2715C57.0227 35.6831 57.9987 35.87 59.1313 35.8271C60.2626 35.7892 61.6932 35.4925 63.4255 34.9407C64.4785 34.6011 65.2323 34.4256 65.6818 34.4154C66.1313 34.4016 66.4975 34.4647 66.7626 34.5998C67.0505 34.7425 67.1717 34.9331 67.1402 35.1667C67.1099 35.4003 66.8586 35.6326 66.4003 35.8662C65.7624 36.1827 65.0507 36.3201 64.3409 36.2639C63.875 36.2349 63.3636 36.1112 62.7942 35.894L59.9192 37.5367C61.0606 38.0228 62.3169 38.2639 63.6831 38.2639C65.0493 38.2639 66.6225 37.817 68.3965 36.923C69.4091 36.4142 70.0998 35.918 70.4722 35.4357C70.8535 34.9584 70.9419 34.4798 70.7475 34.0089Z" fill="#03045E"/>
<path d="M81.0896 40.082L35.0884 63.2487L38.4545 64.9444L84.4583 41.7765L81.0896 40.082ZM42.9419 67.2032L53.0404 72.2866L66.5025 65.5075L56.404 60.4229L42.9419 67.2032ZM65.3813 59.2916L92.3068 45.7323L88.9406 44.0366L62.0151 57.5972L65.3813 59.2916ZM95.673 47.4267L68.7462 60.9873L72.1124 62.6843L99.0391 49.1237L95.673 47.4267Z" fill="#9BC4FD"/>
<path d="M53.0657 90.3144L0 61.9912V64.8851L51.923 92.5947C52.0981 92.6889 52.2937 92.7383 52.4924 92.7387C52.9394 92.7387 53.3725 92.4862 53.5947 92.0455C53.7473 91.7445 53.7775 91.3961 53.6789 91.0734C53.5802 90.7507 53.3605 90.4787 53.0657 90.3144Z" fill="#A1A6A9"/>
</svg>
