<svg width="832" height="59" viewBox="0 0 832 59" fill="none" xmlns="http://www.w3.org/2000/svg">
<g filter="url(#filter0_d_431_140)">
<path d="M22 15C22 9.47715 26.4772 5 32 5H264C269.523 5 274 9.47715 274 15V36.6693C274 42.1921 269.523 46.6693 264 46.6693H32C26.4772 46.6693 22 42.1921 22 36.6693V15Z" fill="#03045E"/>
</g>
<path d="M33 2.5C33 1.11929 34.1193 0 35.5 0H263.5C264.881 0 266 1.11929 266 2.5V3H33V2.5Z" fill="#03045E"/>
<path d="M33 3.5C33 3.22386 33.2239 3 33.5 3H265.5C265.776 3 266 3.22386 266 3.5V5H33V3.5Z" fill="#9BC4FD"/>
<path d="M4 30C4 16.1929 15.1929 5 29 5H33V47H14C8.47715 47 4 42.5228 4 37V30Z" fill="#03045E"/>
<path d="M4 36H274V37.8C274 37.9105 273.91 38 273.8 38H4V36Z" fill="#9BC4FD"/>
<rect x="154" y="13" width="17" height="15" rx="2.5" fill="white"/>
<rect x="226" y="13" width="17" height="15" rx="2.5" fill="white"/>
<rect x="82" y="13" width="17" height="15" rx="2.5" fill="white"/>
<rect x="33" y="13" width="17" height="15" rx="2.5" fill="white"/>
<rect x="105" y="13" width="17" height="15" rx="2.5" fill="white"/>
<rect x="56" y="13" width="20" height="31" rx="2.5" fill="white"/>
<rect x="128" y="13" width="20" height="31" rx="2.5" fill="white"/>
<rect x="200" y="13" width="20" height="31" rx="2.5" fill="white"/>
<rect x="177" y="13" width="17" height="15" rx="2.5" fill="white"/>
<rect x="249" y="13" width="17" height="15" rx="2.5" fill="white"/>
<path d="M12 24C12 17.9249 16.9249 13 23 13H24.5C25.8807 13 27 14.1193 27 15.5V25.5C27 26.8807 25.8807 28 24.5 28H14.5C13.1193 28 12 26.8807 12 25.5V24Z" fill="white"/>
<g filter="url(#filter1_d_431_140)">
<rect x="3" y="28" width="2" height="5" fill="#9BC4FD"/>
</g>
<rect x="3" y="56" width="827" height="3" rx="1" fill="#03045E"/>
<path d="M11 49.75C11 48.7835 11.7835 48 12.75 48H264.25C265.216 48 266 48.7835 266 49.75V49.75C266 52.6495 263.649 55 260.75 55H16.25C13.3505 55 11 52.6495 11 49.75V49.75Z" fill="#9BC4FD"/>
<rect x="65" y="13" width="2" height="31" fill="#03045E"/>
<rect x="137" y="13" width="2" height="31" fill="#03045E"/>
<rect x="209" y="13" width="2" height="31" fill="#03045E"/>
<g filter="url(#filter2_d_431_140)">
<path d="M280 15C280 9.47715 284.477 5 290 5H542C547.523 5 552 9.47715 552 15V37C552 42.5228 547.523 47 542 47H290C284.477 47 280 42.5228 280 37V15Z" fill="#03045E"/>
</g>
<g filter="url(#filter3_d_431_140)">
<path d="M558 15C558 9.47715 562.477 5 568 5H820C825.523 5 830 9.47715 830 15V37C830 42.5228 825.523 47 820 47H568C562.477 47 558 42.5228 558 37V15Z" fill="#03045E"/>
</g>
<path d="M288 2.5C288 1.11929 289.119 0 290.5 0H541.5C542.881 0 544 1.11929 544 2.5V3H288V2.5Z" fill="#03045E"/>
<path d="M566 2.5C566 1.11929 567.119 0 568.5 0H819.5C820.881 0 822 1.11929 822 2.5V3H566V2.5Z" fill="#03045E"/>
<path d="M288 3.5C288 3.22386 288.224 3 288.5 3H543.5C543.776 3 544 3.22386 544 3.5V5H288V3.5Z" fill="#9BC4FD"/>
<path d="M566 3.5C566 3.22386 566.224 3 566.5 3H821.5C821.776 3 822 3.22386 822 3.5V5H566V3.5Z" fill="#9BC4FD"/>
<path d="M280 36H552V37.8C552 37.9105 551.91 38 551.8 38H280V36Z" fill="#9BC4FD"/>
<path d="M558 36H830V37.8C830 37.9105 829.91 38 829.8 38H558V36Z" fill="#9BC4FD"/>
<rect x="432" y="13" width="17" height="15" rx="2.5" fill="white"/>
<rect x="710" y="13" width="17" height="15" rx="2.5" fill="white"/>
<rect x="504" y="13" width="17" height="15" rx="2.5" fill="white"/>
<rect x="782" y="13" width="17" height="15" rx="2.5" fill="white"/>
<rect x="360" y="13" width="17" height="15" rx="2.5" fill="white"/>
<rect x="638" y="13" width="17" height="15" rx="2.5" fill="white"/>
<rect x="311" y="13" width="17" height="15" rx="2.5" fill="white"/>
<rect x="589" y="13" width="17" height="15" rx="2.5" fill="white"/>
<rect x="288" y="13" width="17" height="15" rx="2.5" fill="white"/>
<rect x="566" y="13" width="17" height="15" rx="2.5" fill="white"/>
<rect x="383" y="13" width="17" height="15" rx="2.5" fill="white"/>
<rect x="661" y="13" width="17" height="15" rx="2.5" fill="white"/>
<rect x="334" y="13" width="20" height="31" rx="2.5" fill="white"/>
<rect x="612" y="13" width="20" height="31" rx="2.5" fill="white"/>
<rect x="406" y="13" width="20" height="31" rx="2.5" fill="white"/>
<rect x="684" y="13" width="20" height="31" rx="2.5" fill="white"/>
<rect x="478" y="13" width="20" height="31" rx="2.5" fill="white"/>
<rect x="756" y="13" width="20" height="31" rx="2.5" fill="white"/>
<rect x="455" y="13" width="17" height="15" rx="2.5" fill="white"/>
<rect x="733" y="13" width="17" height="15" rx="2.5" fill="white"/>
<rect x="527" y="13" width="17" height="15" rx="2.5" fill="white"/>
<rect x="805" y="13" width="17" height="15" rx="2.5" fill="white"/>
<path d="M288 49.75C288 48.7835 288.784 48 289.75 48H542.25C543.216 48 544 48.7835 544 49.75V49.75C544 52.6495 541.649 55 538.75 55H293.25C290.351 55 288 52.6495 288 49.75V49.75Z" fill="#9BC4FD"/>
<path d="M566 49.75C566 48.7835 566.784 48 567.75 48H820.25C821.216 48 822 48.7835 822 49.75V49.75C822 52.6495 819.649 55 816.75 55H571.25C568.351 55 566 52.6495 566 49.75V49.75Z" fill="#9BC4FD"/>
<rect x="343" y="13" width="2" height="31" fill="#03045E"/>
<rect x="621" y="13" width="2" height="31" fill="#03045E"/>
<rect x="415" y="13" width="2" height="31" fill="#03045E"/>
<rect x="693" y="13" width="2" height="31" fill="#03045E"/>
<rect x="487" y="13" width="2" height="31" fill="#03045E"/>
<rect x="765" y="13" width="2" height="31" fill="#03045E"/>
<rect x="274" y="34" width="6" height="6" rx="1.5" fill="#03045E"/>
<rect x="552" y="34" width="6" height="6" rx="1.5" fill="#03045E"/>
<defs>
<filter id="filter0_d_431_140" x="22" y="5" width="254" height="43.6693" filterUnits="userSpaceOnUse" color-interpolation-filters="sRGB">
<feFlood flood-opacity="0" result="BackgroundImageFix"/>
<feColorMatrix in="SourceAlpha" type="matrix" values="0 0 0 0 0 0 0 0 0 0 0 0 0 0 0 0 0 0 127 0" result="hardAlpha"/>
<feOffset dx="1" dy="1"/>
<feGaussianBlur stdDeviation="0.5"/>
<feComposite in2="hardAlpha" operator="out"/>
<feColorMatrix type="matrix" values="0 0 0 0 0.607843 0 0 0 0 0.768627 0 0 0 0 0.992157 0 0 0 0.25 0"/>
<feBlend mode="normal" in2="BackgroundImageFix" result="effect1_dropShadow_431_140"/>
<feBlend mode="normal" in="SourceGraphic" in2="effect1_dropShadow_431_140" result="shape"/>
</filter>
<filter id="filter1_d_431_140" x="0" y="28" width="5" height="7" filterUnits="userSpaceOnUse" color-interpolation-filters="sRGB">
<feFlood flood-opacity="0" result="BackgroundImageFix"/>
<feColorMatrix in="SourceAlpha" type="matrix" values="0 0 0 0 0 0 0 0 0 0 0 0 0 0 0 0 0 0 127 0" result="hardAlpha"/>
<feOffset dx="-2" dy="1"/>
<feGaussianBlur stdDeviation="0.5"/>
<feComposite in2="hardAlpha" operator="out"/>
<feColorMatrix type="matrix" values="0 0 0 0 0.607843 0 0 0 0 0.768627 0 0 0 0 0.992157 0 0 0 0.25 0"/>
<feBlend mode="normal" in2="BackgroundImageFix" result="effect1_dropShadow_431_140"/>
<feBlend mode="normal" in="SourceGraphic" in2="effect1_dropShadow_431_140" result="shape"/>
</filter>
<filter id="filter2_d_431_140" x="280" y="5" width="274" height="44" filterUnits="userSpaceOnUse" color-interpolation-filters="sRGB">
<feFlood flood-opacity="0" result="BackgroundImageFix"/>
<feColorMatrix in="SourceAlpha" type="matrix" values="0 0 0 0 0 0 0 0 0 0 0 0 0 0 0 0 0 0 127 0" result="hardAlpha"/>
<feOffset dx="1" dy="1"/>
<feGaussianBlur stdDeviation="0.5"/>
<feComposite in2="hardAlpha" operator="out"/>
<feColorMatrix type="matrix" values="0 0 0 0 0.607843 0 0 0 0 0.768627 0 0 0 0 0.992157 0 0 0 0.25 0"/>
<feBlend mode="normal" in2="BackgroundImageFix" result="effect1_dropShadow_431_140"/>
<feBlend mode="normal" in="SourceGraphic" in2="effect1_dropShadow_431_140" result="shape"/>
</filter>
<filter id="filter3_d_431_140" x="558" y="5" width="274" height="44" filterUnits="userSpaceOnUse" color-interpolation-filters="sRGB">
<feFlood flood-opacity="0" result="BackgroundImageFix"/>
<feColorMatrix in="SourceAlpha" type="matrix" values="0 0 0 0 0 0 0 0 0 0 0 0 0 0 0 0 0 0 127 0" result="hardAlpha"/>
<feOffset dx="1" dy="1"/>
<feGaussianBlur stdDeviation="0.5"/>
<feComposite in2="hardAlpha" operator="out"/>
<feColorMatrix type="matrix" values="0 0 0 0 0.607843 0 0 0 0 0.768627 0 0 0 0 0.992157 0 0 0 0.25 0"/>
<feBlend mode="normal" in2="BackgroundImageFix" result="effect1_dropShadow_431_140"/>
<feBlend mode="normal" in="SourceGraphic" in2="effect1_dropShadow_431_140" result="shape"/>
</filter>
</defs>
</svg>
