<svg width="107" height="796" viewBox="0 0 107 796" fill="none" xmlns="http://www.w3.org/2000/svg">
<rect y="562" width="107" height="156" fill="#F3F3F3"/>
<rect y="640" width="107" height="156" fill="#F3F3F3"/>
<rect y="254" width="107" height="101" fill="#F3F3F3"/>
<rect x="5" y="129" width="97" height="80" fill="#F3F3F3"/>
<path d="M11 54H96L97.5 68H9.5L11 54Z" fill="#F3F3F3"/>
<path d="M19.5 13H87.5L92 24H15L19.5 13Z" fill="#F3F3F3"/>
<rect y="418" width="107" height="156" fill="#F3F3F3"/>
<rect y="269" width="107" height="156" fill="#03045E"/>
<rect y="444" width="107" height="156" fill="#03045E"/>
<rect y="620" width="107" height="156" fill="#03045E"/>
<path d="M5 141H102L107 251H0L5 141Z" fill="#03045E"/>
<path d="M9 65H98L102 126H5L9 65Z" fill="#03045E"/>
<path d="M15 21H92L96 51H11L15 21Z" fill="#03045E"/>
<path d="M25 0H81L88 10H19L25 0Z" fill="#03045E"/>
</svg>
